<svg id="Capa_1" data-name="Capa 1" xmlns="http://www.w3.org/2000/svg" viewBox="0 0 533.8 220.28"><defs><style>.cls-1,.cls-2{fill:none;stroke-miterlimit:10;}.cls-1{stroke:#850f5b;stroke-width:2px;}.cls-2{stroke:#a01127;stroke-width:4px;}.cls-3{fill:#850f5b;}.cls-4{fill:#a01127;}</style></defs><polyline class="cls-1" points="125.72 0.22 114.88 48.1 67.99 62.64 31.95 29.3"/><polyline class="cls-1" points="22 40.89 58.03 74.22 47.18 122.1 0.3 136.64"/><polygon class="cls-2" points="145.68 143.97 98.8 158.51 62.76 125.17 73.61 77.3 120.5 62.76 156.53 96.09 145.68 143.97"/><polyline class="cls-1" points="91.25 220.06 102.09 172.19 148.98 157.64 185.02 190.98"/><polyline class="cls-1" points="196.73 180.93 160.69 147.59 171.54 99.72 218.43 85.18"/><polyline class="cls-1" points="5.32 150.18 52.21 135.64 88.24 168.97 77.39 216.84"/><polyline class="cls-1" points="214.15 69.45 167.26 83.99 131.23 50.66 142.08 2.78"/><path class="cls-3" d="M282,135.08v3.32a19.54,19.54,0,0,1-7.34,1.21q-6.33,0-9.7-4t-3.36-11.42q0-7.1,3.67-11.24t10-4.14a16.65,16.65,0,0,1,7.85,1.76l-1.6,3.2a13.82,13.82,0,0,0-6.25-1.6,8.61,8.61,0,0,0-7,3.25q-2.62,3.25-2.62,8.81c0,3.92.82,6.92,2.46,9s4,3.09,7.2,3.09A24.74,24.74,0,0,0,282,135.08Z" transform="translate(-25.91 -13.96)"/><path class="cls-4" d="M305.87,139.2H288.6v-30h17.27v3.36H292.41v9.27h12.66v3.32H292.41v10.67h13.46Z" transform="translate(-25.91 -13.96)"/><path class="cls-4" d="M317,126.82V139.2h-3.83v-30h7.32q10.67,0,10.66,8.51,0,5.88-5.92,8l8.14,13.43h-4.49l-7.18-12.38Zm0-3.25h3.36c2.34,0,4.07-.45,5.17-1.35a5.23,5.23,0,0,0,1.66-4.31,4.93,4.93,0,0,0-1.64-4.16q-1.64-1.27-5.29-1.27H317Z" transform="translate(-25.91 -13.96)"/><path class="cls-4" d="M349.06,139.2h-3.84V112.58h-8.57v-3.36h21v3.36h-8.55Z" transform="translate(-25.91 -13.96)"/><path class="cls-4" d="M380.29,139.2H364.37v-2.52l6.05-.41V112.15l-6.05-.41v-2.52h15.92v2.52l-6,.41v24.12l6,.41Z" transform="translate(-25.91 -13.96)"/><path class="cls-4" d="M393.78,139.2H390v-30h17.25v3.36H393.78v10.58h12.66v3.37H393.78Z" transform="translate(-25.91 -13.96)"/><path class="cls-4" d="M430.7,139.2H414.78v-2.52l6.05-.41V112.15l-6.05-.41v-2.52H430.7v2.52l-6,.41v24.12l6,.41Z" transform="translate(-25.91 -13.96)"/><path class="cls-4" d="M458.42,135.08v3.32a19.54,19.54,0,0,1-7.34,1.21q-6.33,0-9.7-4T438,124.17q0-7.1,3.67-11.24t10-4.14a16.68,16.68,0,0,1,7.85,1.76l-1.6,3.2a13.82,13.82,0,0,0-6.25-1.6,8.61,8.61,0,0,0-7,3.25q-2.62,3.25-2.62,8.81c0,3.92.82,6.92,2.46,9s4,3.09,7.2,3.09A24.81,24.81,0,0,0,458.42,135.08Z" transform="translate(-25.91 -13.96)"/><path class="cls-4" d="M481.17,139.2l-3-9.29H468.14l-3,9.29h-3.9l9.91-30.1h4l9.94,30.1Zm-4-12.67-2.73-8.7c-.53-1.69-1-3.24-1.27-4.63-.28,1.35-.59,2.6-.95,3.75l-2.95,9.58Z" transform="translate(-25.91 -13.96)"/><path class="cls-4" d="M500.28,139.2h-3.84V112.58h-8.57v-3.36h21v3.36h-8.55Z" transform="translate(-25.91 -13.96)"/><path class="cls-4" d="M532.7,139.2H515.43v-30H532.7v3.36H519.25v9.27H531.9v3.32H519.25v10.67H532.7Z" transform="translate(-25.91 -13.96)"/><path class="cls-4" d="M539,139.2v-30h7q6.49,0,10.12,3.88t3.62,10.82q0,7.41-3.75,11.34t-10.83,3.94Zm3.83-26.72v23.44h2q10.9,0,10.91-11.87,0-11.56-10.11-11.57Z" transform="translate(-25.91 -13.96)"/></svg>