<svg id="Capa_1" data-name="Capa 1" xmlns="http://www.w3.org/2000/svg" viewBox="0 0 579.36 239.89"><defs><style>.cls-1,.cls-2{fill:none;stroke-miterlimit:10;}.cls-1{stroke:#70a83b;stroke-width:2px;}.cls-2{stroke:#336535;stroke-width:4px;}.cls-3{fill:#009045;}.cls-4{fill:#84af38;}</style></defs><polyline class="cls-1" points="151.63 14.18 140.78 62.05 93.9 76.59 57.86 43.26"/><polyline class="cls-1" points="47.91 54.84 83.94 88.18 73.09 136.05 26.21 150.59"/><polygon class="cls-2" points="171.59 157.92 124.71 172.46 88.67 139.13 99.52 91.25 146.41 76.71 182.44 110.05 171.59 157.92"/><polyline class="cls-1" points="117.16 234.02 128 186.14 174.89 171.6 210.93 204.93"/><polyline class="cls-1" points="222.64 194.88 186.6 161.55 197.45 113.67 244.34 99.13"/><polyline class="cls-1" points="31.23 164.13 78.12 149.59 114.15 182.93 103.3 230.8"/><polyline class="cls-1" points="240.06 83.41 193.17 97.95 157.14 64.61 167.99 16.74"/><path class="cls-3" d="M278.55,87.76H299q12.71,0,18.43,4t5.73,13.11a14,14,0,0,1-3.64,9.88,15.78,15.78,0,0,1-9.86,4.78V120q15.4,2.5,15.4,15.87,0,9.18-5.91,14.42T303,155.57H278.55Zm8.67,28.76h13.17q7.25,0,10.56-2.56t3.31-8.44q0-5.56-3.55-8t-11.24-2.41H287.22Zm0,7.23v24.49h14.24q14.43,0,14.43-12.71,0-11.77-15-11.78Z"/><path class="cls-4" d="M375.86,155.57l-6.67-21H346.41l-6.77,21h-8.82l22.41-68.09h9l22.5,68.09Zm-9.13-28.66-6.17-19.67q-1.81-5.76-2.88-10.49-.93,4.6-2.13,8.49l-6.68,21.67Z"/><path class="cls-4" d="M392.84,153.3V145a50.68,50.68,0,0,0,19.21,4q16.23,0,16.23-11.13a8.91,8.91,0,0,0-3.27-7.42q-3.27-2.59-13.24-6.17-9.64-3.39-13.85-8.1T393.72,104q0-8.07,6-12.64T416,86.78a49.67,49.67,0,0,1,19.29,3.62l-3,7.61a44.84,44.84,0,0,0-16.7-3.62q-13.6,0-13.6,9.69a10,10,0,0,0,3,7.61q3,2.88,12.55,6.17,11.41,4.08,15.24,8.42a16.24,16.24,0,0,1,3.82,11.16q0,8.9-6.42,14t-18.25,5.08Q399.75,156.5,392.84,153.3Z"/><path class="cls-4" d="M489.75,155.57h-36v-5.7l13.68-.93V94.39l-13.68-.93v-5.7h36v5.7l-13.64.93v54.55l13.64.93Z"/><path class="cls-4" d="M552.46,146.25v7.51q-6.78,2.75-16.61,2.74-14.33,0-21.94-9.09t-7.61-25.84q0-16,8.31-25.42t22.68-9.37a37.57,37.57,0,0,1,17.77,4L551.44,98a31.15,31.15,0,0,0-14.15-3.62q-10,0-15.91,7.35t-5.94,19.92q0,13.32,5.57,20.3t16.28,7A56,56,0,0,0,552.46,146.25Z"/><text/></svg>