<svg id="Capa_1" data-name="Capa 1" xmlns="http://www.w3.org/2000/svg" viewBox="0 0 523.41 220.28"><defs><style>.cls-1,.cls-2{fill:none;stroke-miterlimit:10;}.cls-1{stroke:#db9600;stroke-width:2px;}.cls-2{stroke:#cb6120;stroke-width:4px;}.cls-3{fill:#cb6120;}.cls-4{fill:#db9600;}</style></defs><polyline class="cls-1" points="125.72 0.22 114.88 48.1 67.99 62.64 31.95 29.3"/><polyline class="cls-1" points="22 40.89 58.03 74.22 47.18 122.1 0.3 136.64"/><polygon class="cls-2" points="145.68 143.97 98.8 158.51 62.76 125.17 73.61 77.3 120.5 62.76 156.53 96.09 145.68 143.97"/><polyline class="cls-1" points="91.25 220.06 102.09 172.19 148.98 157.64 185.02 190.98"/><polyline class="cls-1" points="196.73 180.93 160.69 147.59 171.54 99.72 218.43 85.18"/><polyline class="cls-1" points="5.32 150.18 52.21 135.64 88.24 168.97 77.39 216.84"/><polyline class="cls-1" points="214.15 69.45 167.26 83.99 131.23 50.66 142.08 2.78"/><path class="cls-3" d="M293.09,144.39l-4.22-13.27H274.49l-4.28,13.27h-5.57l14.15-43h5.72l14.21,43Zm-5.77-18.1-3.9-12.42c-.76-2.43-1.36-4.63-1.81-6.63-.4,1.94-.84,3.72-1.35,5.37L276,126.29Z" transform="translate(-25.91 -13.96)"/><path class="cls-4" d="M303.64,144.39V101.56h10q9.29,0,14.45,5.54t5.18,15.47q0,10.58-5.37,16.2t-15.46,5.62Zm5.48-38.17V139.7h2.81q15.58,0,15.58-17,0-16.51-14.44-16.52Z" transform="translate(-25.91 -13.96)"/><path class="cls-4" d="M364.9,101.56h5.83L356.4,144.39h-5.48l-14.27-42.83h5.75L351,128.72q1.2,3.72,2.58,9.78.9-4.25,2.72-10Z" transform="translate(-25.91 -13.96)"/><path class="cls-4" d="M401.11,144.39l-4.22-13.27H382.5l-4.27,13.27h-5.57l14.15-43h5.71l14.21,43Zm-5.77-18.1-3.9-12.42c-.76-2.43-1.37-4.63-1.82-6.63-.39,1.94-.84,3.72-1.34,5.37l-4.22,13.68Z" transform="translate(-25.91 -13.96)"/><path class="cls-4" d="M439.69,144.39h-6.3l-17-35.45h-.23q.52,8.11.52,12.22v23.23h-5V101.56h6.25l16.93,35.27H435q-.4-8.87-.41-11.83V101.56h5.1Z" transform="translate(-25.91 -13.96)"/><path class="cls-4" d="M476.63,138.5v4.75A28.06,28.06,0,0,1,466.15,145q-9.06,0-13.86-5.74t-4.81-16.32q0-10.14,5.25-16.06T467.05,101a23.76,23.76,0,0,1,11.23,2.51L476,108a19.71,19.71,0,0,0-8.94-2.28,12.26,12.26,0,0,0-10,4.64Q453.26,115,453.26,123q0,8.4,3.51,12.81t10.28,4.41A35,35,0,0,0,476.63,138.5Z" transform="translate(-25.91 -13.96)"/><path class="cls-4" d="M510.74,144.39H486.07V101.56h24.67v4.81H491.52v13.24h18.07v4.74H491.52v15.24h19.22Z" transform="translate(-25.91 -13.96)"/><path class="cls-4" d="M519.67,144.39V101.56h10q9.28,0,14.46,5.54t5.17,15.47q0,10.58-5.36,16.2t-15.47,5.62Zm5.48-38.17V139.7H528q15.59,0,15.59-17,0-16.51-14.44-16.52Z" transform="translate(-25.91 -13.96)"/></svg>