<svg id="Capa_1" data-name="Capa 1" xmlns="http://www.w3.org/2000/svg" viewBox="0 0 218.72 220.28"><defs><style>.cls-1,.cls-2{fill:none;stroke-miterlimit:10;}.cls-1{stroke:#2d2d2d;stroke-width:2px;opacity:0.11;}.cls-2{stroke:#4d454c;stroke-width:4px;opacity:0.13;}</style></defs><polyline class="cls-1" points="125.72 0.22 114.88 48.1 67.99 62.64 31.95 29.3"/><polyline class="cls-1" points="22 40.89 58.03 74.22 47.18 122.1 0.3 136.64"/><polygon class="cls-2" points="145.68 143.97 98.8 158.51 62.76 125.17 73.61 77.3 120.5 62.76 156.53 96.09 145.68 143.97"/><polyline class="cls-1" points="91.25 220.06 102.09 172.19 148.98 157.64 185.02 190.98"/><polyline class="cls-1" points="196.73 180.93 160.69 147.59 171.54 99.72 218.43 85.18"/><polyline class="cls-1" points="5.32 150.18 52.21 135.64 88.24 168.97 77.39 216.84"/><polyline class="cls-1" points="214.15 69.45 167.26 83.99 131.23 50.66 142.08 2.78"/></svg>