<svg id="f186defc-9d97-4c1d-84a8-6f3f49a9ca04" data-name="Capa 1" xmlns="http://www.w3.org/2000/svg" xmlns:xlink="http://www.w3.org/1999/xlink" viewBox="0 0 188.74 117.12"><defs><style>.b3737a7c-d623-4c50-92af-ee0d38d9d74f{fill:url(#acbbcb0a-c92e-45c5-aefa-70aba9a8f961);}.a7a6bbed-48b9-43a9-867a-8394a9a596c8{fill:url(#b4ad1dda-88f9-40fe-90ab-628779af8dcc);}</style><linearGradient id="acbbcb0a-c92e-45c5-aefa-70aba9a8f961" x1="9.9" y1="60.43" x2="92.84" y2="60.43" gradientUnits="userSpaceOnUse"><stop offset="0" stop-color="#be1622"/><stop offset="1" stop-color="#e6007e" stop-opacity="0.7"/></linearGradient><linearGradient id="b4ad1dda-88f9-40fe-90ab-628779af8dcc" x1="103.05" y1="60.43" x2="185.99" y2="60.43" gradientTransform="matrix(-1, 0, 0, 1, 278.83, 0)" xlink:href="#acbbcb0a-c92e-45c5-aefa-70aba9a8f961"/></defs><path class="b3737a7c-d623-4c50-92af-ee0d38d9d74f" d="M9.9,13.21H47.35c27.51,0,45.49,18.12,45.49,46,0,27.55-17.45,48.41-46.35,48.41H9.9ZM30.33,91.16H45.64c18.11,0,26.11-13.47,26.11-31.86,0-15.43-7.49-29.59-26-29.59H30.33Z"/><path class="a7a6bbed-48b9-43a9-867a-8394a9a596c8" d="M175.78,107.66H139.19c-28.9,0-46.35-20.86-46.35-48.41,0-27.92,18-46,45.49-46h37.45ZM155.36,29.71H139.92c-18.49,0-26,14.16-26,29.59,0,18.39,8,31.86,26.11,31.86h15.32Z"/></svg>