<svg id="Capa_1" data-name="Capa 1" xmlns="http://www.w3.org/2000/svg" viewBox="0 0 320 243.38"><defs><style>.cls-1{fill:#19abd8;}.cls-2{fill:#5465a3;}.cls-3{fill:#bcb7ed;}</style></defs><path class="cls-1" d="M100.63,214.05,24,273v-17.1l65.07-48.58v-.5L24,158.28V141.17l76.63,59Z" transform="translate(-24 -48.16)"/><path class="cls-2" d="M112.89,53.14a303.42,303.42,0,0,1,54.35-5c36.72,0,62.87,10.31,80.2,29.85,17.63,19.54,27.91,47.25,27.91,86,0,39.08-10,71.06-28.5,93.09-18.5,22.38-49.06,34.46-87.54,34.46a341.37,341.37,0,0,1-46.42-2.84ZM138.45,264.9c6.46,1.42,15.86,1.77,25.85,1.77,54.64,0,84.32-37,84.32-101.61.29-56.5-26.15-92.38-80.21-92.38-13.22,0-23.2,1.42-30,3.2Z" transform="translate(-24 -48.16)"/><path class="cls-3" d="M275.5,182.5H227.74V170H344V182.5H296V284.12H275.5Z" transform="translate(-24 -48.16)"/></svg>