<svg id="Capa_1" data-name="Capa 1" xmlns="http://www.w3.org/2000/svg" viewBox="0 0 439.23 349.71"><defs><style>.cls-1{opacity:0.76;}.cls-2{fill:#406e6a;}.cls-3{fill:#171c1c;}.cls-4{fill:#253a39;}</style></defs><g class="cls-1"><path class="cls-2" d="M424.8,105.72c-.62,11.59,4.05,22.2-10.3,25.62-16.11,20.14-7.77,55.71-34.14,70.9-33.59,20-85.43,16-109.11-17.45-11.94-12.61-12.51-45.46-27.5-50.58-38.89-2.47-9.13,93.83-120.34,77.56h0c-42.69-5.11-46.59-44.47-55.87-78.08-2.14-5.68-9.17-6-13.62-8.9C53.61,119,50.46,101.28,56.13,99c44.81-5.35,90.7-9.69,135.14.12,51,18.28,91.58-2.13,142.18-4.47,22.32-.57,44,1.44,65.63,3.52C406.56,101.37,422.78,97.07,424.8,105.72ZM295.19,196.85c31.87,17.7,89.55,14.21,96.77-29.66,22-72.06-31.34-63.62-83.25-61.56C288.32,108,258.4,114.52,265,142.12,268.65,163.38,276.4,184.15,295.19,196.85Zm-199-8.41,0,0c23.14,25.34,74.4,22.47,97.85-1.91,13.7-17.36,32.23-53.74,11.51-71h0c-32-15.76-72.43-15.38-107.06-7.68-29.87,9-14.78,61.4-2.5,80.39v0C95.93,188.35,96,188.42,96.17,188.44Z"/></g><path class="cls-3" d="M391.64,71.1c-.62,11.58,4.05,22.2-10.3,25.61-16.12,20.15-7.77,55.71-34.14,70.9-33.59,20-85.44,16-109.11-17.44-11.94-12.62-12.51-45.47-27.5-50.59-38.9-2.47-9.14,93.83-120.34,77.57h0c-42.69-5.11-46.59-44.48-55.87-78.08-2.15-5.69-9.18-6-13.63-8.91C20.45,84.33,17.3,66.66,23,64.35c44.81-5.35,90.69-9.7,135.14.12,51,18.28,91.57-2.14,142.18-4.47,22.32-.58,44,1.43,65.63,3.51C373.39,66.75,389.62,62.44,391.64,71.1ZM262,162.22c31.87,17.71,89.55,14.22,96.77-29.65,22-72.06-31.34-63.63-83.26-61.56-20.39,2.35-50.31,8.88-43.75,36.48C235.49,128.76,243.24,149.52,262,162.22Zm-199-8.4,0,0c23.13,25.34,74.4,22.46,97.85-1.92,13.69-17.36,32.23-53.73,11.5-71h0c-32-15.76-72.42-15.38-107-7.68-29.87,9-14.78,61.4-2.5,80.39v0C62.77,153.72,62.85,153.8,63,153.82Z"/><path class="cls-3" d="M14.21,283.31h6v23H34.16l-.69,4.95H14.21Z"/><path class="cls-3" d="M63.88,297.18c0,7.77-4.67,14.46-13.74,14.46-8.76,0-13.35-6.37-13.35-14.36s5.07-14.37,13.74-14.37C58.7,282.91,63.88,288.63,63.88,297.18Zm-20.85,0c0,5.45,2.39,9.57,7.34,9.57,5.37,0,7.27-4.5,7.27-9.47,0-5.29-2.16-9.44-7.37-9.44C45.23,287.82,43,291.72,43,297.16Z"/><path class="cls-3" d="M94.87,297.18c0,7.77-4.67,14.46-13.74,14.46-8.76,0-13.35-6.37-13.35-14.36s5.07-14.37,13.74-14.37C89.69,282.91,94.87,288.63,94.87,297.18Zm-20.85,0c0,5.45,2.39,9.57,7.34,9.57,5.37,0,7.27-4.5,7.27-9.47,0-5.29-2.16-9.44-7.37-9.44C76.22,287.82,74,291.72,74,297.16Z"/><path class="cls-3" d="M100.15,283.31h6v12.46c1.84-2.15,7.58-8.44,11.11-12.46h7.23l-11.22,11.61,11.63,16.32h-7.24l-8.57-12.41-2.94,2.82v9.59h-6Z"/><path class="cls-3" d="M133.85,283.31v27.93h-6V283.31Z"/><path class="cls-3" d="M140.53,311.24V283.31H148c3.49,6.27,9.93,17.58,11.22,20.63h.07c-.31-2.92-.31-7.77-.31-12.35v-8.28h5.47v27.93h-7.09c-3-5.46-10.15-18.45-11.53-21.67h-.08c.21,2.44.27,8.17.27,13.18v8.49Z"/><path class="cls-3" d="M195.42,311.24H191a15.29,15.29,0,0,1-.46-2.76c-1.55,2.09-4.28,3.23-8.16,3.23-8.1,0-12.63-6.13-12.63-14.08,0-8.4,4.88-14.72,13.68-14.72,7.19,0,11.42,4,12.1,8.82h-6c-.58-1.87-2-4.09-6.14-4.09-5.73,0-7.37,4.8-7.37,9.72s1.88,9.54,7.41,9.54c5.16,0,6.11-3.58,6.11-6.08v-.26h-6.12v-4.94h12Z"/><path class="cls-4" d="M221,283.31h19.49v4.95H226.87v6.84H239.6v4.95H226.87v11.19H221Z"/><path class="cls-4" d="M271,297.18c0,7.77-4.66,14.46-13.73,14.46-8.77,0-13.35-6.37-13.35-14.36s5.06-14.37,13.74-14.37C265.85,282.91,271,288.63,271,297.18Zm-20.85,0c0,5.45,2.4,9.57,7.35,9.57,5.37,0,7.27-4.5,7.27-9.47,0-5.29-2.17-9.44-7.37-9.44S250.17,291.72,250.17,297.16Z"/><path class="cls-4" d="M282.21,300.06v11.18h-5.9V283.31h12.27c6.08,0,9.36,3.36,9.36,7.67a6.69,6.69,0,0,1-4.06,6.61c1.39.51,3.47,2,3.47,7v1.38a22.49,22.49,0,0,0,.4,5.32H292c-.49-1.22-.58-3.31-.58-6.27v-.41c0-3.05-.77-4.5-5.27-4.5Zm0-4.8h5.06c3.3,0,4.58-1.26,4.58-3.6s-1.48-3.54-4.44-3.54h-5.2Z"/><path class="cls-2" d="M333.17,302.29c0,6.43-2.08,9.35-8.2,9.35a17.65,17.65,0,0,1-3.79-.35v-4.8a22.58,22.58,0,0,0,2.76.17c2.78,0,3.19-1.85,3.19-4V283.31h6Z"/><path class="cls-2" d="M365.34,297.18c0,7.77-4.67,14.46-13.74,14.46-8.76,0-13.35-6.37-13.35-14.36s5.07-14.37,13.74-14.37C360.16,282.91,365.34,288.63,365.34,297.18Zm-20.85,0c0,5.45,2.39,9.57,7.34,9.57,5.37,0,7.27-4.5,7.27-9.47,0-5.29-2.16-9.44-7.37-9.44C346.69,287.82,344.49,291.72,344.49,297.16Z"/><path class="cls-2" d="M370.62,283.31h12.2c6.75,0,9.31,3.52,9.31,7.15a6.35,6.35,0,0,1-3.56,6.05,6.67,6.67,0,0,1,4.35,6.37c0,4.78-3.75,8.36-9.69,8.36H370.62Zm11.51,11c2.86,0,4.05-1.29,4.05-3.25s-1.55-3.1-3.88-3.1h-5.75v6.35Zm-5.58,12.24H382c3.27,0,4.74-1.36,4.74-3.89,0-2.25-1.45-3.69-4.77-3.69h-5.41Z"/><path class="cls-2" d="M402.57,303.33c.63,2.77,2.62,4,5.81,4s4.55-1.26,4.55-3.28c0-2.25-1.33-3.22-6.05-4.32-7.51-1.76-9.37-4.49-9.37-8.22,0-4.81,3.6-8.07,10.13-8.07,7.33,0,10.25,3.93,10.64,8h-6c-.29-1.7-1.22-3.54-4.78-3.54-2.42,0-3.88,1-3.88,3s1.17,2.69,5.63,3.73c8,1.89,9.78,4.88,9.78,8.77,0,5-3.81,8.49-11.11,8.49-7,0-10.69-3.45-11.35-8.48Z"/><path class="cls-2" d="M86.92,297.24c0,3.21-1.93,6-5.68,6s-5.51-2.64-5.51-5.94,2.09-5.94,5.68-5.94C84.78,291.34,86.92,293.7,86.92,297.24Zm-8.62,0c0,2.25,1,3.95,3,3.95,2.22,0,3-1.85,3-3.91s-.89-3.9-3-3.9S78.3,295,78.3,297.23Z"/><path class="cls-2" d="M55.93,297.24c0,3.21-1.93,6-5.68,6s-5.51-2.64-5.51-5.94,2.09-5.94,5.68-5.94C53.79,291.34,55.93,293.7,55.93,297.24Zm-8.62,0c0,2.25,1,3.95,3,3.95,2.22,0,3-1.85,3-3.91s-.9-3.9-3-3.9S47.31,295,47.31,297.23Z"/></svg>