<svg id="Capa_1" data-name="Capa 1" xmlns="http://www.w3.org/2000/svg" viewBox="0 0 346.38 328.38"><defs><style>.cls-1{fill:#b7ab94;}.cls-2{fill:#afafaf;}.cls-3{fill:#999998;}.cls-4{fill:#333;}.cls-5{fill:#7c6568;}.cls-6{fill:#514f4c;}.cls-7{fill:#2d2d2d;}.cls-8{fill:#5a5651;}.cls-9{fill:#4d4c4c;}.cls-10{fill:#706451;}.cls-11{fill:#5d5d5a;}.cls-12{fill:#bdb9b6;}.cls-13{fill:#6e6e6d;}.cls-14{fill:#948c90;}.cls-15{fill:#9e8d69;}.cls-16{fill:#f7e9c5;}.cls-17{fill:#96866b;}.cls-18{fill:#c1b08e;}.cls-19{fill:#c2c1c1;}.cls-20{fill:#727272;}.cls-21{fill:#bfbebe;}.cls-22{fill:#aa2a17;}.cls-23{fill:#4b3826;}.cls-24{fill:#958a76;}.cls-25{fill:#8f816b;}.cls-26{fill:#777671;}.cls-27{fill:#e8e8e8;}.cls-28{fill:#b05745;}.cls-29{fill:#9e8e81;}.cls-30{fill:#a9644b;}.cls-31{fill:#ac7665;}.cls-32{fill:#eb611c;}.cls-33{fill:#b05823;}.cls-34{fill:#f39139;}.cls-35{fill:#f28d33;}.cls-36{fill:#3f2619;}.cls-37{fill:#88c48a;}.cls-38{fill:#f4df49;}.cls-39{fill:#e68b5b;}.cls-40{fill:#db1d1e;}.cls-41{fill:#3a8abc;}.cls-42{fill:#ecddc1;}.cls-43{fill:#c73718;}.cls-44{fill:#751c13;}.cls-45{fill:#d3c6aa;}.cls-46{fill:#aba499;}.cls-47{fill:#100e0b;}.cls-48{fill:#e85110;}.cls-49{fill:#a73017;}.cls-50{fill:linen;}.cls-51{fill:#eacb9e;}.cls-52{fill:#944d2a;}</style></defs><path class="cls-1" d="M72,227.34l-.19-1c-1-1.55,0-3.38-.71-5-1.06-12-2.28-24-3.12-36-.65-9.24.93-10.72,10.06-11,2-.06,4,.26,5.77-1,2.17-1.16,2-4.3,4.49-5.23,2.5,2.79,5.5,3.31,9.16,2.73a51.37,51.37,0,0,1,9.3-.55c4.8.37,9.37,2.56,14.49.54,2.48-1,5.28,1.08,7.37,3.06,3,5.14,3.55,11,4.88,16.6,1.18,5,2.17,10,3.6,15,.92,3.18,2.46,4.53,6,4.37,8.94-.39,17.79-1.83,26.72-2.23,4.53-.21,2.87-3.45,3.28-5.74,1.66-2.59.45-5-.31-7.54-2-6.57-.36-8.23,6.29-7.11,7.29,1.22,14.41,4.28,22.09,2.15,2.24-.62,4.18.82,5.81,2.32,2.83,2.61,6,3.44,9.66,2.07,4.14-1.58,8-1.05,12.11.46,4.6,1.7,9.78,1.32,14.29,3.63a4.71,4.71,0,0,0,3.43.27c8.69-3.46,17.27-1.22,25.93,0,2.55.37,5.28-.73,7.93-.24,2,.37,4.49.34,4.51,3.43-3.08,2.69-7,2.88-10.71,3.45-15.53,2.37-31.23,3.38-46.78,5.35-16.25,2.06-32.53,3.87-48.82,5.3-12.86,1.13-25.7,2.58-38.6,3.32a37.39,37.39,0,0,0-4.87.93c-17.88,1.17-35.75,2.36-53.58,4.13A9.39,9.39,0,0,0,77,225.74C75.53,226.74,74.06,228,72,227.34Z"/><path class="cls-2" d="M98.83,287.38c-15.81-20.09-9.71-41.85,1.93-55.29a5.25,5.25,0,0,1,4.63-3.3c15.53-.93,31-3.18,46.58-3.08,2.12.42,3.75,1.45,3.81,3.83.09,3.57,1.9,6.6,3,9.86.47,8.6-2,16.84-3.87,25-1.75,7.59-7.33,13.09-14.53,16.15-3.71,1.57-6.3,3.63-7.4,7.4s-3.37,5.45-7.26,5.54c-3.15.07-6.29.38-8.23,3.66-1,1.63-2.89,2.15-4.84,2.08C106.51,297.07,102.6,292.31,98.83,287.38Z"/><path class="cls-3" d="M112,298.29a6.78,6.78,0,0,0,5.45-4.12c1.57-3.21,5.87-2.41,9-2.35s3.89-.76,4.65-3.57c1.23-4.49,3.14-8.28,9-9.18,4.69-.73,13.24-10.91,13.92-16.25,1-7.84,2.54-15.6,3.85-23.4l.69-.26c2.83,1.26,3.25,4.19,4.53,6.53a5.17,5.17,0,0,1,.28,1.56c1.49,10.32,4.21,19.73,14.68,25,9.13,4.55,10.79,14.19,14,22.6.76,2,1.19,4.12,1.92,6.15,2.53,7,.31,10.65-7.23,11.82-8.83,1.38-17.66,2.46-26.64,2.08-4.79-.21-9.47-1.14-14.23-1.5l-5-1c-2.3-.88-4.73-1.3-7.08-2-.79,0-1.58,0-2.08-.79-6.28-1.35-12.24-3.42-17.34-7.48C113.12,301.12,111.38,300.44,112,298.29Z"/><path class="cls-4" d="M152.66,227.28c-26.66.09-56.31,7.44-75.06,4.05-9.14,1.47-1.6-8.75,3.77-7.88,51.83-3.68,103.53-7.54,155.21-12.71,16.77-4.42,44.34,3.08,54-13.41,2.48,34.34-59.63,12.33-78.88,25.93-75.33,4.31-1.53,12,13,27.82C150.75,287.77,183,233.91,152.66,227.28Z"/><path class="cls-5" d="M23.93,57.44c-3.45-2.86-7.93-4.58-9.93-9,2.47-7.07,5.56-13.81,10.82-19.34A5.1,5.1,0,0,1,29,30.25c15,10.5,30.63,20.06,45.45,30.81q5.87,4.26,11.7,8.54c2.07,1.52,4.59,3,3.94,6.34C87,81.5,85.21,87.65,82.7,93.47c-1,2.33-1.58,4.82-5,4.21C67,89.53,56.24,81.35,45.44,73.25,38.32,67.91,31.1,62.71,23.93,57.44Z"/><path class="cls-6" d="M206.86,306.3c-3.53,1.72-6.9,3.85-11,4-.7-8.83-4.73-16.67-7.52-24.87-1.55-4.59-4.63-8.29-7.76-12-1.62-1.92-4.48-3.89-2.52-7.26,1.53-.59,3-.06,4.35.45A13.13,13.13,0,0,0,194,265.63c10.22-6.08,21.4-5.44,32.5-4.71,8,.53,11.43,7.24,8.51,15.39C229.93,290.37,220,299.83,206.86,306.3Z"/><path class="cls-7" d="M207.17,306.3c11.67-6.69,44.3-39.25,17.24-43.89-16.82-5.19-31.52,12.71-46.68,3.68-9.83-9.44-19.29-26.81-13.17-39.63,3.25,13,7.87,40.87,26.21,35.31,76.83-18.33,1-10.92-14.05-34.64,11.4-5.07,33.83,20,50.15,9.4C248.1,257.75,235.89,298.8,207.17,306.3Z"/><path class="cls-5" d="M77.74,97.68a5.27,5.27,0,0,0,3.31-4.38c.71-5.49,5.38-9.64,5.47-15.51,0-1.33,1.79-2.23,3.41-2.32a3,3,0,0,1,3.13-1c7.56,2.34,15.44,2.31,23.19,3.16,2,1.88.29,2.91-1,3.88a14.4,14.4,0,0,1-4.16,1.67C100.65,86.74,95.59,95.78,98,106.59c.82,3.75.68,7.29-2.24,10.23a5.07,5.07,0,0,1-1.31.82c-5.69,1.1-8.18-.75-9-6.45-.44-3,.09-6.32-2.67-8.61Z"/><path class="cls-8" d="M226.76,236.54c.24,2.86-1.31,4-3.91,3.79-8.89-.74-17.85-1.09-26.14-5-5-2.35-10-4.58-15-6.81-1.79-.81-4.11-1.15-2.85-4.06a210.57,210.57,0,0,0,24.7-1.93c2.77-.35,5.64-.51,8.32.75A61,61,0,0,1,226.76,236.54Z"/><path class="cls-9" d="M333.73,103.38c.06,7.88-3.37,14.88-6.18,21.87-4.14,10.27-7.63,20.86-13.35,30.47a119.7,119.7,0,0,1-15.39,20.68c-5,3.36-5.89,9-7.95,14-2.62-3-1.58-6.44-.87-9.77.5-2.4,2.06-4.47,2.34-7a7.13,7.13,0,0,1,1.43-3.71c15-13.41,20.26-32.23,27.65-49.86,1.65-4.13,2.61-8.56,5.15-12.32C329.06,106.53,330.14,102.91,333.73,103.38Z"/><path class="cls-10" d="M269.83,208.42c-15.56,2.56-31.29,3.58-47,5.05-14.85,1.4-29.64,3.31-44.48,4.68-8.77.81-17.59.27-26.41,1.12-20.62,2-41.29,3.4-61.95,5a26.88,26.88,0,0,1-5,.09c-5.39-.6-9.37,1.47-12.12,6.07a3,3,0,0,1-.88-3.11c4.51-5.09,10.78-5.31,16.82-5.78,15.34-1.19,30.69-2.13,46.05-3.17,3.86-1.3,7.88-.42,11.82-.78,13.16-1.18,26.36-2,39.5-3.37,13-1.34,26-2.37,39-3.92,8.85-1.06,17.76-2,26.69-2.45,4.13-.21,8.21-.92,12.3-1.46,1.87-.24,3.57-.64,5.27.38A1.19,1.19,0,0,1,269.83,208.42Z"/><path class="cls-11" d="M177.87,266.35c.84,3.33,3.2,5.87,5.3,8.22,7.36,8.23,8.52,19.22,13.33,28.56,1.1,2.15.64,4.89-.64,7.2a89.13,89.13,0,0,1-50,3c7.32-.55,14.5,1.37,21.85,1a158,158,0,0,0,19.69-2.53c5.86-1,7.18-3.92,5.31-9.69-2.09-6.47-4.16-12.91-6.82-19.2a16.84,16.84,0,0,0-8.54-9.25c-11.92-5.43-14.69-15.76-15.42-27.36,1.63-.59,2.53.35,3.07,1.63,3,7.06,8,12.69,12.89,18.36Z"/><path class="cls-12" d="M88,168.19c-.21,2.7-.18,5.59-4.2,5.2q-.53-22.8-1-45.6A47.07,47.07,0,0,1,84,115.5c2.83-1.45,3.51,1,4.69,2.57a10.68,10.68,0,0,1,2.49,5.13c-1.55,8.8-2.94,17.6-2.43,26.61.2,3.47.33,6.93.74,10.39C89.82,163,90.3,165.86,88,168.19Z"/><path class="cls-13" d="M269.83,208.42v-1c2.69-3.52,7-2.55,10.51-3.65,5.79-1.81,5.94-1.73,6-7.84,0-4.65-.11-9.3.11-14,1.2-3.89,2.18-8,7.19-8.76-.77,5.76-4.12,11.11-2.79,17.22l.06,6.9c.65,7.42-2.53,8.91-13.7,11C274.83,208.73,272.3,208.4,269.83,208.42Z"/><path class="cls-14" d="M89.94,122.5c-2.51-1.88-2.16-6.18-5.93-7-.42-4.31.3-8.73-1.28-12.92,3.92,1.83,3.58,5.69,4.13,9,.68,4.15,2.47,6.3,6.93,5C94.18,119.6,93.24,121.81,89.94,122.5Z"/><path class="cls-10" d="M71.13,221.34c1,1.54.9,3.25.71,5C70.57,224.8,70.8,223.08,71.13,221.34Z"/><path class="cls-15" d="M122,51.32c24.94,2.78,50,3.4,75,5.2,3.74.27,7.66-.34,11.13,1.76a2.39,2.39,0,0,1-2,2c-8.43,1.7-16.08,5.37-23.64,9.28-1.22.63-3.39.8-3,2.68.36,1.71,2.42,1.26,3.82,1.59,2.95.7,6.73-1.5,8.76,2.49A2.77,2.77,0,0,1,191,77.51c-9.48,1.82-19,.83-28.55.64-5.1-.11-10.19-.68-15.21.76a46.94,46.94,0,0,1-10.19.38c-4.42-.7-8.86-.19-13.29-.34-7.71-1-15.53-.74-23.23-2-4.56-.72-5.51-2.6-2.59-6.16,4.67-5.69,10.53-10.15,16.27-14.68C116.56,54.26,118.34,51.22,122,51.32Z"/><path class="cls-16" d="M218.88,63.6c8-.17,13-4.92,15.71-11.72C238.67,41.75,243,31.77,247.8,22c3.22-6.62,6.33-8.08,12.67-4.71,11.41,6.06,22.75,12.33,32.64,20.81,1.63,1.4,3.19,2.89,4.78,4.34,3.94,3.45,8.36,6.43,11,11.17a59.19,59.19,0,0,1,10.41,15c1.44,3.14,3.84,6.63.79,10.1-1.52,1.73-9.05.72-11.78-1.32-1.58-1.18-2.7-3-4.72-3.53-3.23-1.65-5.33-4.56-7.85-7-6.22-7.7-14-13.59-22.13-19.07-7.53-5.06-15.9-5.13-24.43-4.39a9.14,9.14,0,0,0-7.69,5.56,76.83,76.83,0,0,0-5.43,13.86c-.86,3.3-1.13,6.95-4,9.45a4.55,4.55,0,0,1-1.53.63,33.74,33.74,0,0,0-4.24,1.21c-2.95.94-5.62.67-7.42-2S216.35,66.42,218.88,63.6Z"/><path class="cls-17" d="M122,51.32c-7,7.06-15.52,12.39-22.2,19.79-1,1.15-3.15,2-2.25,4,.81,1.78,2.85,1.24,4.46,1.49,6.92,1.08,13.9.5,20.84.84a1.07,1.07,0,0,1-.2,1.55c-2,1.16-4,1.34-5.7-.49-9.18.6-18.15-.75-27-3-4.13-5.92-10.72-8.85-16.27-12.94C60.71,53,47.39,44,33.59,35.67c-3-1.81-5.1-4.83-8.48-6.05-.89-.65-.38-1.39-.15-2.12C32.5,22,40.89,18,48.89,13.31c3.4-2,6.62-1.38,9.83.57,15,9.1,30,18.39,45.2,27.13C109.93,44.46,116,47.75,122,51.32Z"/><path class="cls-18" d="M218.88,63.6c0,1.32-.09,2.65,0,4,.31,4.81,2.53,6.29,7.2,5,1.58-.44,3.2-.69,4.8-1-.11,2.76-2.38,3.33-4.33,4.07a33.11,33.11,0,0,1-10.69,1.82c-6.61.22-13.18-.72-19.78-.5a5,5,0,0,1-4.1-1.37l-10.41-.14c-2.33,0-4.72-1-5-3.1-.27-1.93,2-3,3.94-3.82,7-3,14-6.28,21-9.31,2.06-.88,4.65,1.16,6.64-.89Z"/><path class="cls-19" d="M307.8,53.5c-2.69-4.24-7.46-6.64-9.91-11.1.48.06,1.14-.06,1.42.21,11.09,10.48,23.38,19.93,29.07,35,1.11,2.93.59,6.25,2.54,8.87.87,7.59,1.9,15.21-3.4,21.85l-4.77,12.14c-3,7.53-6.8,14.69-9.95,22.16-.67,1.57-1,4.6-4.23,3.82-1.18-2.08,0-3.86.74-5.68,3.17-8.05,7-15.8,10.44-23.76a45.84,45.84,0,0,0,3.6-12.4,56.57,56.57,0,0,0-3.47-34.7C317.13,63.61,312.4,58.54,307.8,53.5Z"/><path class="cls-20" d="M327.52,108.28c2.33-7.1,1.82-14.64,3.4-21.85,3.7,5.2,2.75,11.16,2.81,16.95C331.36,104.64,330.3,107.55,327.52,108.28Z"/><path class="cls-21" d="M25,27.5c.77.66.05,1.41.15,2.12L14,48.41c.24-7.47,4.62-13.28,7.91-19.52C22.48,27.8,23.75,27.54,25,27.5Z"/><path class="cls-22" d="M89.94,122.5q1.92-3,3.85-6l1.1-.16c2.77-2.35,5.84-3.76,9.59-3,13.75-.76,27.48-1.95,41.28-1.4,2,.08,4-.29,5.9.62a87.91,87.91,0,0,0,17.14,9c9.25,3.7,12.21,11.51,14.37,20.06a4.34,4.34,0,0,1-.43,3.41c-3.85,5.75-.76,10.75,1.67,15.77,1,2,2.23,3.85-.31,5.61-8,2.47-16.47,1.78-24.69,2.79-10.2,1.25-20.49,2-30.74,2.36-7.15.26-14.36,1.24-21.55.36-3.92.27-7.92.16-11.76.9-4.26.83-6.93.15-7.32-4.65-.51-7.41-1.27-14.81-1.44-22.22A78.6,78.6,0,0,1,89.94,122.5Z"/><path class="cls-1" d="M107.12,171.94,170,166.43l14.85-1.3a8.17,8.17,0,0,1,4.9-2.2c13.37-.85,26.67-2.56,40.07-3,4.6,1.51,9.47,1.71,14.18,1.81,11.66.25,21.94,4.82,32,9.78,5.67,2.8,10.33,4.24,15.09-1a3.91,3.91,0,0,1,3.58-1.36.76.76,0,0,1,.2,1.28l-1.2,2.76c-3,2-4.49,5-5.81,8.2-1.18,4.68-.15,9.44-.55,14.14-.16,1.92.7,4.52-2.58,4.84a18.88,18.88,0,0,0-11.28-.37c-1.82.55-3.62.6-5.19-.73a4.3,4.3,0,0,0-5.51-.41c-.41.24-1.2.55-1.39.37-6.07-5.54-11.8,3.36-18,.45-1.42-.67-3.82.56-4.86-1.86-.12-.28-.52-.72-.67-.68-7.08,2.12-13.22-5.65-20.57-1.81-4.14,2.17-8.15,1.28-11.24-2.38-1.85-2.18-3.79-2.69-6.57-1.73-4.56,1.56-9.22.75-13.55-1-3.29-1.3-6.92-.43-10.14-2.26-1.76-1-2.79.45-2.29,2.39.66,2.57,1.62,5.08,2.1,7.68.21,1.11,1.87,3.44-1.41,3.3-2.64-.49-3-2.84-3.8-4.77-2.52-6.32-5.11-12.62-7.56-19-1.35-3.51-3.68-5-7.29-4.43a84.57,84.57,0,0,1-14.4.66c-2.06,0-4.14-.16-6.11.7-2.35.43-4.7.76-7-.2-3.32-1.35-6.23-2.81-10.38-1.31C114.61,174.14,110.64,172.42,107.12,171.94Z"/><path class="cls-23" d="M141.24,172.51c5.13-.34,10.28-.47,15.37-1.09,3.95-.48,6,.88,7.4,4.61,3.17,8.54,6.72,16.92,10.11,25.37,2.1,7.49,2.09,7.42-6.08,8-8.75.66-17.52,1.22-26.22,2.34-3.78.49-5.14-.94-5.9-4.12-2.63-11.1-5.31-22.18-8-33.27,2.17-1.33,4.7-.44,7-1.14C137,172.41,139.21,173.43,141.24,172.51Z"/><path class="cls-24" d="M284.71,200.39c2.34-1.79,1.86-4.38,2.08-6.83.37-4.05-1.15-8.27,1-12.15,0,5.16-.21,10.33,0,15.48.2,4.69-2.15,7.22-6.31,8.26-3.85,1-7.81,1.53-11.72,2.27l-33.69,3.15c-9.91.93-19.82,1.88-29.73,2.78-17.51,1.6-35,3.29-52.55,4.68-6.29.5-12.64.26-19,.36,3.95-2.25,8.43-1.17,12.61-1.7,12.8-1.62,25.75-2,38.58-3.42,13.14-1.46,26.35-2.2,39.43-4.45,8.61-1.49,17.47-1.5,26.18-2.48C262.82,205.08,274,203.89,284.71,200.39Z"/><path class="cls-25" d="M104,176.69c-1.32,1.75-2.88,1.52-4.32,1.73-8.48,1.23-12.54,7.09-11.18,15.41.92,5.66.43,11.6,4.41,16.81-3.75-1.11-5.56-3.38-5.88-8.1-.26-3.8-.75-7.57-1.08-11.36-.7-8.05,2.26-11.81,10.27-13.86A16.56,16.56,0,0,1,104,176.69Z"/><path class="cls-26" d="M152.77,227.28c1.89-1.27,4-.67,6-.78,2.6,3.06,2.26,8.17-.86,12.81l-.16.11c-2-3.29-4.71-6.31-3.4-10.7C154.69,227.73,153.49,227.58,152.77,227.28Z"/><path class="cls-27" d="M150.49,252.27c.26,2.11-1,3-2.22,3.82s-2.47,1.75-4.09,1.14a1.51,1.51,0,0,1-1-2,4,4,0,0,1,3.57-2.95C148,252.18,149.28,252.27,150.49,252.27Z"/><path class="cls-6" d="M177.86,266.34c-5.49-3.81-9-9.2-12-15-1-1.93-1.85-3.94-4-5,0-.32-.05-.64-.05-1-2.19-6.3-2.5-12.61,0-18.91h2c-.49,10.1.26,19.88,6.16,28.67C172.53,258.92,176.18,262,177.86,266.34Z"/><path class="cls-11" d="M161.83,226.47q0,9.45,0,18.91L158,239.31c-.38-4.31,2.39-8.42.86-12.81Z"/><path class="cls-28" d="M103.83,114.3l-8.94,2.07a11.11,11.11,0,0,0,1.63-9.46,20.2,20.2,0,0,1,14.41-25.46c2.18-.59,4.66-.66,6-3l5.93,0c4.6-1.34,9.43.44,14-1l10-.08c6.69-1.3,13.15,0,19.57,1.71,1.49.4,3,1,2.26,3.09-1.64,4.76-.38,9.88-2,14.69-1.06,3.18.45,5.28,3.6,6.56,5.17,2.11,10.68,2.38,16.05,3.39,4.58.86,9.25,1.61,13,4.61,1.81,1.44,4.4,3.16,1.28,5.89-4.66.9-9-1.12-13.45-1.61-7.84-2.36-15.95-2.85-24-3.23a353.82,353.82,0,0,0-42.21,0C115.3,112.92,109.6,114,103.83,114.3Z"/><path class="cls-29" d="M294.85,170.45l-.19-1.12c-.51-2.67,1.84-3.66,3.11-5.3,3.73-4.8,8.17-9.21,9-15.69a2.77,2.77,0,0,1,2.15-1.88c5.37-5.31,6.31-13,10-19.13,1.35-2.25,1.93-4.94,3.82-6.91-2.83,10.47-8.67,19.65-12.65,29.61A50.89,50.89,0,0,1,294.85,170.45Z"/><path class="cls-30" d="M200.89,116.44c.18-4.27-3.55-4.72-6.16-5.79-4.91-2-10.22-2.68-15.48-3.15-4.38-.4-8.32-2-12.32-3.59-1.93-.75-2.38-2.18-2.34-4.35.11-5.16,3.55-10.09.81-15.49-.87-1.73,2.44-1.32,2.59-3-7.06-1.52-13.7-4.7-21.07-3.69,3.7-1.46,7.57-.67,11.34-.74,11.15-.2,22.31-.19,33.46-.26,7.3-1.57,14.09.2,20.6,3.31,4,1.91,4.5,4.8,1.12,7.69C208,92,207,98.75,204.87,104.94c-.76,2.19.93,4.08,1.85,6,1.24,2.58,2.45,5.18.22,7.87C204.33,119.54,201.85,119.94,200.89,116.44Z"/><path class="cls-31" d="M206.75,118.67c.32-2.73.09-5.35-1.77-7.54-2.54-3-2.82-6-1.08-9.57,1.67-3.41,2.78-7.07,4.21-10.59a8.41,8.41,0,0,1,4.18-4.75c1.15-.54,2.66-1,2.28-2.79-.32-1.51-1.67-2.07-2.9-2.47-6.51-2.14-12.66-5.86-19.95-4.58.09-.28.17-.56.25-.84,8.94-.07,17.88,0,26.81-.29,4.29-.13,8.55-.92,12.09-3.73l1-.09c1.75,1.56,1.53,3.55,1,5.48a18.32,18.32,0,0,0,0,8.8,6.32,6.32,0,0,1-.13,2.41,9.11,9.11,0,0,1-2.08,3.22c-4.07,2.67-4.46,7.62-6.47,11.42-3.4,6.42-7.94,12.22-10.48,19.1C210.58,122.48,208,122.08,206.75,118.67Z"/><path class="cls-5" d="M136.9,77.46c-4.55,2.08-9.36.55-14,1l0-1Z"/><path class="cls-32" d="M231.75,86.65c-2.17-5.09.18-10.15.1-15.22,2.53-7.16,3.86-14.69,7.2-21.63,2.77-5.73,6.7-8.35,13.17-8.6,10.84-.44,20.2,2.37,28.45,9.51,5.61,4.86,12.17,8.66,16.16,15.23,1.05,3,3.56,4.82,5.73,6.77,7.52,6.79,9.06,15.66,8.47,25-.31,4.87-1.65,9.77-2.91,14.57-.59,2.21-1.25,4.66-4.44,4.35-2.15-2.8-.59-5.7-.22-8.56,3.06-7.68,2.23-15.3-.22-23.13-1.71,2.83-6.1,1.32-6.94,5-.33,1.79-.85,3.54-1.2,5.33-1.53,7.87-14.87,16.34-22.55,14.25-12.07-3.28-23-8.11-27.48-21.3a5.72,5.72,0,0,0-4.68-4c-2.33-.4-4.26-1.76-6.41-2.75C232.76,83,233.83,85.49,231.75,86.65Z"/><path class="cls-16" d="M307.8,53.5c8.84,7.38,16.48,16.12,17.35,27.78.57,7.54,3.81,15.55-.34,23.16a135.47,135.47,0,0,1-11.9,13.91c-6.89,7-11.91,15.41-16.38,24.1-1,1.93-1.81,4-3.72,5.15-1.46.9-3.13,2.3-4.53-.19.92-4.47,4-7.86,5.92-11.86,2.61-5.5,5.65-10.83,8.68-16.13,9-10.72,10.1-30.73,2.46-42.56-.81-1.25-2.74-2.2-1.78-4.25,2.15-.23,3.36,1.29,4.49,2.65,2.88,3.45,7.08,2.07,10.62,2.82,2.05.44,1.41-2.06,1.13-3.41-1.31-6.51-5.13-11.68-9.09-16.75C309.62,56.52,307.88,55.56,307.8,53.5Z"/><path class="cls-33" d="M303.56,72.61c.86,1.41,1.66,2.86,2.57,4.23,4.31,6.45,6.68,13.36,4.94,21.19s-2.18,15.8-7.28,22.39c-2.18-2.58-2.18-2.81.16-4a5.22,5.22,0,0,0,2.48-3.58c1.86-8.84,4.42-17.59,2.33-26.83-1.39-6.1-5.36-10.48-9-15.11-1.22-1.53-3-2.68-2.9-5Z"/><path class="cls-34" d="M99.93,57.42c-1.74,1.89-3.48,3.79-5.24,5.67-1.45,1.54-3,1.72-4.71.34.7-5.45-.22-6.08-7-4.76a34.06,34.06,0,0,1-12.92-7.8c.12-4.63,3.62-6.48,7-8.46a7.09,7.09,0,0,0,2.83-1.33,10.38,10.38,0,0,1,1-.75c1.32-.75,2.15-2.23,3.78-2.51,4.67,2.58,9.81,4.42,13.53,8.51-.93,1.77-3,2.06-4.35,3.22-2.79,2.31-2.59,3.82.71,5.47C96.3,55.9,98.53,55.74,99.93,57.42Z"/><path class="cls-35" d="M62.66,46.34C59.1,44,54.84,42.67,51.84,39.42c-.58-1.54.39-2.58,1.18-3.68a5.35,5.35,0,0,1,1.57-1.19A16.07,16.07,0,0,0,59,32.29c.88-.6,1.63-1.37,2.57-1.89,2-.88,3.53-2.68,5.69-3.34A38.09,38.09,0,0,1,81.2,36.14c-.69,1.75-3,1.6-3.82,3.17-3.6,1.91-7.61,3.07-10.57,6.09C65.67,46.57,64.16,46.58,62.66,46.34Z"/><path class="cls-36" d="M80.77,36.16c-4.65-2.76-8.54-6.74-13.85-8.39-3.47.71-5.62-2-8.37-3.17-2.79-1.77-4.62.65-6.66,1.67-3.9,1.94-7.27,5-11.9,5.36-.81-.29-2.6-.55-1-1.63C44.56,26.34,50.31,23,56,19.5c1.25-.78,1.9-.18,3,.5,12.19,7.66,24.49,15.16,36.71,22.77,3.84,2.38,7.57,4.95,11.44,7.49-1.46,1.57-2.27,0-3.18.34-3.37.32-5.37-1.37-6.48-4.38a69.25,69.25,0,0,0-13.53-7.61C81.91,39,81.07,37.91,80.77,36.16Z"/><path class="cls-37" d="M97.42,46.22l6.48,4.38c.85,3.54-2.27,4.77-4,6.82a7.89,7.89,0,0,1-1,.18c-4.28.27-9.14-1.3-9.62-4.94C88.94,49.69,93.45,46.92,97.42,46.22Z"/><path class="cls-38" d="M62.66,46.34c4.46-3.14,8.68-6.73,14.26-7.85,2.63-.56,4.25.2,4.16,3.19l0-.1c-1,.66-2.4.58-3.15,1.69-3.38,1.76-5.38,4.93-7.86,7.6A18,18,0,0,1,62.66,46.34Z"/><path class="cls-39" d="M40,31.63c5-2.92,9.91-5.86,14.88-8.76,1.43-.84,2.94-1.86,4.18.31-1.41,1.82-2,3.4.69,4.76a3.62,3.62,0,0,1,2.35,3.37L60,33.5c-2.82-1.37-5-4.27-8.8-4,.46,2.76,3.95,3,3.86,5.72l-1.18,1.28c-2,.7-3.41-.66-4.92-1.54-2.31-1.35-4.69-2.29-7.43-1.68Z"/><path class="cls-40" d="M83,58.67c2.11-4.17,6.12-3.1,8.42-1.58C94,58.82,93.57,62,90,63.43Z"/><path class="cls-41" d="M41.54,33.3c1.62-2.33,3.59-2.45,5.85-1s4.33,2.79,6.5,4.19c0,1.49-1.39,1.91-2,2.9C47.65,38.65,45,35.32,41.54,33.3Z"/><path class="cls-42" d="M288.77,147.28c3.39.83,4.73-1.68,5.83-3.94,5.36-11.05,11.4-21.54,21-29.55,1.74-1.44,2.86-3.63,4.24-5.5s2.48-3.59,4.92-3.85c-.27,7.53-3.91,14-6.86,20.57-3.16,7.09-6.51,14.1-9.05,21.45l-1.2,1.94A38.08,38.08,0,0,1,298.3,164c-4.28,4.13-8.68,5.71-13.44,2.51-7.74-5.22-15.7-7.22-24.77-5.45a6.42,6.42,0,0,1-3.87-.71c-2.69-1.9-4-4.86-5.33-7.66a71.41,71.41,0,0,0-12.47-17.27c-3.11-3.34-6.8-5.83-11.79-5-3.77-1.24-7.52-2.49-8.32-7.18,4.39-10.73,6.78-22.17,11.54-32.77l1.64-1.94c2.12.89,1.86,3,2.19,4.66.87,4.51,2.49,8.76,5.77,11.92,11.7,11.27,18.28,25.8,25.76,39.76.32.59.58,1.2.87,1.79,1.77,3.64,4.42,6.16,8.59,6.74,1,.69,1.4,1.8,3.4.59C281.65,151.75,284.11,147.68,288.77,147.28Z"/><path class="cls-43" d="M218.63,123.51c2.12,2.77,5.33,4.08,8.05,6,5,.42,7.22,4.62,10.26,7.7,4.18,5.57,8.89,10.83,10.82,17.76.6,2.17,2,4.45-.59,6.34a73.28,73.28,0,0,1-16.28.34l-41.59,3.18c-1.48.11-3,.17-4.45.26-2.6-3.71-3.79-8-5.49-12.14-1.09-2.64-1.05-4.31.67-6.17,2.55-2.78,1.6-5.33.54-8.61-1.93-6.05-4.22-11.81-10.29-14.23-5.41-2.16-10.33-5.12-15.52-7.62a22.32,22.32,0,0,1-2.86-1.92c2.35-2.58,5.51-2,8.41-1.91,9.23.36,18.49.48,27.66,1.93l12.92,2,5.86,2.23a17.35,17.35,0,0,0,7.13,2.72C216.12,120.62,217.61,121.55,218.63,123.51Z"/><path class="cls-44" d="M188,114.46l-36.08,0a4.22,4.22,0,0,0-3.24-.93c-13.92-.11-27.85-.63-41.66,1.68a3,3,0,0,1-3.16-.89c4.28-2.07,9-2.24,13.54-2.59,23-1.8,46-2.5,68.87,1.84A7,7,0,0,1,188,114.46Z"/><path class="cls-45" d="M230.89,161.69,248,160a6.7,6.7,0,0,1,3.6-1.29,11.16,11.16,0,0,1,4.32.68c4.29,0,8.56.19,12.84-.8a11.62,11.62,0,0,1,10.59,2.83c9.47,8.2,18.12,6.61,24.73-7.22,1-2.07,1.54-4.43,3.66-5.78.52,6.78-4.73,10.62-8,15.44a49.18,49.18,0,0,1-5.05,5.49c-1.34,1.25-2.76,2.41-4,3.74-3.61,3.85-7.61,4.33-12.13,1.69a88.82,88.82,0,0,0-44.32-12.33A5.07,5.07,0,0,1,230.89,161.69Z"/><path class="cls-46" d="M141.24,172.51c-2,.94-4.18.77-6.32.74C136.88,171.77,139.11,172.58,141.24,172.51Z"/><path class="cls-47" d="M142.19,175.48c4.36-1.31,6.85,1,8.15,5.73,2.12,7.8,4.63,15.49,6.93,23.24a2.57,2.57,0,0,1-.21,1.85c-1.26,2-10.39,1.41-11.54-.68a111.89,111.89,0,0,1-10.09-25.34c-1.21-4.61-.28-5.16,3.6-4.81C139.85,175.54,140.69,175.48,142.19,175.48Z"/><path class="cls-48" d="M274.53,153.93c-5.33,1.67-8.16-1.81-9.52-5.75-4-11.47-12.27-20.46-17.19-31.35-1.19-2.61-3.47-4.46-5.59-6.31-6.68-5.86-10.55-13-10.74-22,.09-.62.17-1.23.26-1.84V78.08c4,2,7.1,4.78,11.43,4.89,2,0,3,2.54,3.48,4.49,3.56,14.42,20.91,19.63,31,21.31.47.08,1.28.13,1.42-.11,3.89-6.45,15.43-5.9,15-16.33a10.33,10.33,0,0,1,.75-2.87c1.43-.28,1.79.77,2.21,1.75,1.08,5.83-.92,11.19-2.7,16.53-4,12-9.57,23.38-13.75,35.31C279.19,147,276.43,150.24,274.53,153.93Z"/><path class="cls-31" d="M218.63,123.51l-4.75-2.12a3.69,3.69,0,0,1,0-4.52,106.58,106.58,0,0,0,12.51-23c.53-1.38,2.27-2.29,3.45-3.42C227.66,102,224.9,113.33,218.63,123.51Z"/><path class="cls-49" d="M274.53,153.93c-1.55-1-.95-2.15-.19-3.34,7.34-11.52,10.84-24.74,16.19-37.14,3-6.88,5.8-14.08,5.35-21.92,1-.93,2.48-.33,2.42.37-.52,5.56,9.25,4.26,7.06,10.73-.55,1.61.29,3.3-.43,4.87-.33,3-.65,6-1,8.93-1.74,1.26,0,2.67-.16,4-4.93,9-8.81,18.58-15,26.86-2.9,2.33-5.72,4.74-8.71,6.93C278.28,155.52,276.27,156,274.53,153.93Z"/><path class="cls-49" d="M303.86,106.72c-.44-1.48-1.57-3.11-1.16-4.42,1.14-3.73,1-5.67-4.79-4.37-2.37.53-2.73-1.52-3-3.11s1-4-2.45-4.56l-1.33-2.13c.2-2.45-.71-5.83,4.81-3.76,1.48.56,2.35.06,2.66-1.21s-.23-3,2.31-3c2.29.09,3.05,1.8,3.52,3.2C307.06,91.2,307.87,99,303.86,106.72Z"/><path class="cls-50" d="M81.08,41.68c-.81-1.82-2.61-2.34-4.16-3.19C76.36,31.32,89.58,41,81.08,41.68Z"/><path class="cls-41" d="M55.07,35.24c-2-2.12-7-3.06-7-6.19C52.21,22.8,66.84,35.5,55.07,35.24Z"/><path class="cls-41" d="M62.09,31.31c-1.32-.94-2.72-1.79-4-2.83s-3.85-.67-3.44-2.77c.35-1.85,2.54-2.26,4.36-2.53l7.87,4.59C66.06,30,64.27,30.9,62.09,31.31Z"/><path class="cls-51" d="M255.88,159.37c-1.26,1.62-2.54.77-3.82,0a3.55,3.55,0,0,1-2.4-2.3c-2.84-7.76-8.37-13.6-13.84-19.48l-9.14-8.07c5.16-2.88,9,.74,11.86,3.59A79.38,79.38,0,0,1,255.88,159.37Z"/><path class="cls-52" d="M235.82,137.62c7.59,5.64,13.57,12.48,16.24,21.78-1.14,1.84-2.7.63-4.1.58C245.72,151.55,240.78,144.57,235.82,137.62Z"/><path class="cls-27" d="M227.31,246.21c.36,3.07-1.41,4.37-3,5.55s-3.39,2.54-5.61,1.65a2.24,2.24,0,0,1-1.31-2.9c.77-2.43,2.39-4,4.9-4.27C223.94,246.09,225.65,246.21,227.31,246.21Z"/></svg>