<svg id="Grupo_10585" data-name="Grupo 10585" xmlns="http://www.w3.org/2000/svg" width="324.408" height="285.017" viewBox="0 0 324.408 285.017">
  <path id="Trazado_9967" data-name="Trazado 9967" d="M96.409,195.959a22.524,22.524,0,0,1,3.219,1.43c-.115.3-37.126-6.338-49.544-30.227a38.48,38.48,0,0,1-3.756-11.268A43.855,43.855,0,0,0,33.807,192.2a49.545,49.545,0,0,0,25.466,24.137A48.9,48.9,0,0,0,88.9,218.493c-1.283,3.21-70.449,18.446-60.1-16.274q.625,30.049,1.252,60.1C-20.624,161.371,58.722-10.009,223.958,14.777c-15.325,35.018-55.344,89.374-84.974,114.829C198.4,41.1,176.992,24.925,97.661,95.8c-9.11,23.359,5.505,57.454,21.285,67.61-17.7-1.606-47.045-24.287-43.821-53.837-13.2,20.324-13.6,34.47-11.268,43.821C63.856,153.39,68.209,170.818,96.409,195.959Z" transform="translate(-14.894 -12.356)"/>
  <path id="Trazado_9968" data-name="Trazado 9968" d="M37,240" transform="translate(-9.323 45.017)"/>
  <path id="Trazado_9969" data-name="Trazado 9969" d="M166,174" transform="translate(23.189 28.383)"/>
  <path id="Trazado_9970" data-name="Trazado 9970" d="M305.132,144.5l-27.545,28.8a159.4,159.4,0,0,0-127.114-7.115c25.485-29.058,99.624-21.693,111.843-9.581a32.094,32.094,0,0,1,5.177-34.015c-2.35-2.161-5.335-4.989-8.733-8.444-2.066-2.1-6.283-6.462-11.222-12.211-13.971-16.26-14.978-21.8-26.293-32.553-6.784-6.448-10.268-9.677-14.872-9.916-7.759-.4-12.4,7.225-25.193,19.932-17.006,16.892-27.143,29.108-27.545,28.8s9.475-14.2,52.166-70.478q22.882,22.738,46.319,47.706Q280.208,115.4,305.132,144.5Z" transform="translate(19.276 -5.967)"/>
  <ellipse id="Elipse_1" data-name="Elipse 1" cx="9.568" cy="8.683" rx="9.568" ry="8.683" transform="translate(216.049 88.974) rotate(-64.546)"/>
  <path id="Trazado_9971" data-name="Trazado 9971" d="M237.145,99.582" transform="translate(41.12 9.627)"/>
</svg>
